/* XPM */
static char *_e7254c351154ebe9be9bfd48978a48a[] = {
/* columns rows colors chars-per-pixel */
"64 64 173 2 ",
"   c #2A2D56",
".  c #2A2F5A",
"X  c #262A56",
"o  c #2C335C",
"O  c #2F3356",
"+  c #33375C",
"@  c #393C5C",
"#  c #343A5D",
"$  c #2D3463",
"%  c #2F3867",
"&  c #2D3769",
"*  c #2E396B",
"=  c #303666",
"-  c #333A64",
";  c #313B6D",
":  c #3A3F65",
">  c #2F3D71",
",  c #313E73",
"<  c #3E415E",
"1  c #374167",
"2  c #37416C",
"3  c #39436D",
"4  c #3F486E",
"5  c #3A4165",
"6  c #334175",
"7  c #394674",
"8  c #3A4876",
"9  c #33437C",
"0  c #3C4C7C",
"q  c #474B67",
"w  c #404768",
"e  c #434660",
"r  c #4F526E",
"t  c #404871",
"y  c #424F7F",
"u  c #47537C",
"i  c #475174",
"p  c #575A75",
"a  c #5A5E7B",
"s  c #565B76",
"d  c #5C627E",
"f  c #606277",
"g  c #656879",
"h  c #334682",
"j  c #354985",
"k  c #3B4C82",
"l  c #364C8B",
"z  c #384D8D",
"x  c #3D5186",
"c  c #3E538C",
"v  c #364E91",
"b  c #394F91",
"n  c #375297",
"m  c #3A5195",
"M  c #3A559B",
"N  c #3B589F",
"B  c #3C59A2",
"V  c #3B57A1",
"C  c #475180",
"Z  c #4B5582",
"A  c #4A5A8C",
"S  c #525D83",
"D  c #435691",
"F  c #4C5D92",
"G  c #415892",
"H  c #5B6485",
"J  c #5D6789",
"K  c #5D698D",
"L  c #4E639D",
"P  c #5E6C94",
"I  c #55679A",
"U  c #696F8B",
"Y  c #686B84",
"T  c #6A7189",
"R  c #78798A",
"E  c #696F90",
"W  c #6B7294",
"Q  c #607098",
"!  c #6B759A",
"~  c #6D789F",
"^  c #757D9A",
"/  c #7A7F92",
"(  c #415DA3",
")  c #4962A2",
"_  c #4660A1",
"`  c #546BA4",
"'  c #556BA4",
"]  c #5C73AC",
"[  c #6E7BA3",
"{  c #6979A8",
"}  c #707FA9",
"|  c #707DA5",
" . c #7B839B",
".. c #6E80AF",
"X. c #7181AD",
"o. c #7A87AA",
"O. c #7D84A1",
"+. c #6E81B1",
"@. c #7989B2",
"#. c #7688B4",
"$. c #868897",
"%. c #8B8D9D",
"&. c #888EA7",
"*. c #868DA2",
"=. c #8F90A7",
"-. c #8890AF",
";. c #8792AD",
":. c #9699A7",
">. c #9B9EAB",
",. c #9397AA",
"<. c #8696BC",
"1. c #8693B6",
"2. c #919DBC",
"3. c #939BB5",
"4. c #97A0BA",
"5. c #9CA5BE",
"6. c #A7ACBA",
"7. c #ABAEBA",
"8. c #A6A9B6",
"9. c #8998C1",
"0. c #929FC2",
"q. c #95A2C3",
"w. c #A3AEC5",
"e. c #A6B0C7",
"r. c #ABB1C4",
"t. c #B2BACE",
"y. c #BBBDCA",
"u. c #B9BBC4",
"i. c #B7BCD3",
"p. c #BCBDD2",
"a. c #BFC4D4",
"s. c #C4C5CC",
"d. c #C7C8CE",
"f. c #C3C6D3",
"g. c #C4C9D5",
"h. c #CBCED5",
"j. c #C2C6DC",
"k. c #C5C9DA",
"l. c #C9CDD9",
"z. c #CED0D7",
"x. c #CED1DA",
"c. c #D2D3D7",
"v. c #D3D5DC",
"b. c #D9D9DC",
"n. c #D7D8DB",
"m. c #C8CEE0",
"M. c #D6DAE3",
"N. c #D6D8E4",
"B. c #CFD3FF",
"V. c #D2D6FE",
"C. c #D6DAFF",
"Z. c #DADDFF",
"A. c #D7DAF1",
"S. c #DEE1E5",
"D. c #DFE0EA",
"F. c #DEE1FF",
"G. c #E1E2E5",
"H. c #E4E5EB",
"J. c #E7E8EC",
"K. c #EBECEE",
"L. c #E6E8F7",
"P. c #EDEEF2",
"I. c #E3E6FF",
"U. c #E7E8FE",
"Y. c #EBECFF",
"T. c #EFF0F2",
"R. c #EFF0FE",
"E. c #F3F3F4",
"W. c #F4F4FF",
"Q. c #F8F7FF",
"!. c #F7F8FE",
"~. c #FDFDFF",
"^. c None",
/* pixels */
"^.^.^.^.^.^.^.^.^.^.^.^.^.^.^.^.^.^.^.^.^.^.^.^.^.^.^.Z.F.Z.F.F.F.F.Z.Z.F.^.^.^.^.^.^.^.^.^.^.^.^.^.^.^.^.^.^.^.^.^.^.^.^.^.^.^.",
"^.^.^.^.^.^.^.^.^.^.^.^.^.^.^.^.^.^.^.^.^.^.^.Z.F.F.F.F.F.F.F.F.F.F.F.F.F.F.Z.F.F.^.^.^.^.^.^.^.^.^.^.^.^.^.^.^.^.^.^.^.^.^.^.^.",
"^.^.^.^.^.^.^.^.^.^.^.^.^.^.^.^.^.^.^.^.Z.Z.F.Z.F.F.I.F.I.I.I.I.I.I.I.I.F.I.I.F.Z.Z.F.Z.^.^.^.^.^.^.^.^.^.^.^.^.^.^.^.^.^.^.^.^.",
"^.^.^.^.^.^.^.^.^.^.^.^.^.^.^.^.^.^.Z.Z.I.F.I.I.I.I.I.U.U.I.U.I.I.Y.I.I.U.I.I.I.I.F.I.Z.F.Z.^.^.^.^.^.^.^.^.^.^.^.^.^.^.^.^.^.^.",
"^.^.^.^.^.^.^.^.^.^.^.^.^.^.^.^.Z.Z.I.F.I.I.I.I.U.U.U.U.Y.Y.Y.Y.Y.Y.Y.U.U.U.U.U.I.I.I.I.I.Z.Z.Z.^.^.^.^.^.^.^.^.^.^.^.^.^.^.^.^.",
"^.^.^.^.^.^.^.^.^.^.^.^.^.^.Z.Z.Z.Z.I.I.I.I.Y.I.Y.Y.Y.Y.Y.Y.R.Y.Y.R.Y.Y.Y.Y.Y.Y.U.U.U.I.I.I.I.Z.Z.Z.^.^.^.^.^.^.^.^.^.^.^.^.^.^.",
"^.^.^.^.^.^.^.^.^.^.^.^.^.Z.F.F.I.I.I.I.Y.U.Y.Y.Y.Y.R.R.R.R.R.R.R.R.R.R.R.Y.Y.R.Y.Y.Y.U.I.I.I.I.I.Z.Z.^.^.^.^.^.^.^.^.^.^.^.^.^.",
"^.^.^.^.^.^.^.^.^.^.^.^.Z.F.F.I.I.U.Y.Y.Y.Y.R.R.R.W.R.W.W.W.W.W.W.W.W.W.R.W.R.R.R.Y.Y.Y.Y.U.I.I.F.F.F.Z.^.^.^.^.^.^.^.^.^.^.^.^.",
"^.^.^.^.^.^.^.^.^.^.^.Z.F.F.I.I.I.Y.Y.Y.R.R.R.R.R.W.Q.Q.W.W.Q.Q.Q.Q.Q.W.Q.W.W.W.R.R.R.Y.Y.Y.U.U.I.I.I.Z.Z.^.^.^.^.^.^.^.^.^.^.^.",
"^.^.^.^.^.^.^.^.^.^.Z.F.F.I.U.U.Y.Y.Y.R.R.R.W.W.Q.Q.Q.!.!.Q.Q.!.!.!.!.Q.!.!.Q.Q.W.W.W.R.R.Y.Y.U.I.I.I.I.I.Z.^.^.^.^.^.^.^.^.^.^.",
"^.^.^.^.^.^.^.^.^.Z.F.F.I.U.U.Y.Y.R.R.R.W.W.W.Q.Q.Q.!.!.!.~.~.~.~.!.!.!.!.!.!.!.Q.W.W.W.R.R.Y.Y.Y.U.I.I.I.Z.Z.^.^.^.^.^.^.^.^.^.",
"^.^.^.^.^.^.^.^.Z.F.I.I.I.U.Y.Y.Y.R.W.Q.W.Q.Q.Q.!.!.~.!.~.~.~.~.~.~.~.~.~.!.~.!.Q.Q.W.W.W.W.R.R.Y.Y.I.I.I.I.Z.Z.^.^.^.^.^.^.^.^.",
"^.^.^.^.^.^.^.Z.F.F.I.I.U.Y.Y.R.R.R.Q.!.!.!.!.!.!.~.~.~.~.~.~.~.~.~.~.~.~.~.~.~.!.!.!.!.Q.Q.W.R.R.Y.U.U.I.I.I.Z.Z.^.^.^.^.^.^.^.",
"^.^.^.^.^.^.Z.Z.F.I.U.Y.R.R.R.W.Q.!.!.!.~.~.~.~.~.~.~.~.~.~.~.~.~.~.~.~.~.~.~.~.~.~.!.!.!.!.Q.W.W.R.R.Y.I.I.F.F.Z.Z.^.^.^.^.^.^.",
"^.^.^.^.^.Z.Z.Z.A.t.p.p.p.p.f.f.f.f.g.g.h.h.h.h.h.h.z.z.x.x.z.z.x.z.z.z.x.z.z.z.x.x.T.Q.x.h.k.k.k.j.j.N.Y.I.I.F.F.Z.Z.^.^.^.^.^.",
"^.^.^.^.^.Z.Z.I.j.e O + + - - - : : 2 3 3 3 8 8 8 8 0 0 0 0 k k x x x c c c G c G o.P.6.0 c x c c b I i.Y.Y.I.I.I.Z.Z.^.^.^.^.^.",
"^.^.^.^.Z.Z.F.I.I.=.  $ $ = % * ; , 6 6 9 9 h h h l l l l x v m m n M M N N B B ` k.H.S z M n N N ( 9.L.Y.Y.U.I.F.F.Z.Z.^.^.^.^.",
"^.^.^.^.Z.Z.F.I.Y.A.f . $ = - * ; , , 6 9 9 9 h h h l l l z v b m m n M N B B B 9.T.,.h m n n M N ] m.W.R.Y.Y.I.I.F.F.Z.^.^.^.^.",
"^.^.^.Z.Z.F.F.U.U.R.p.@ $ = = * ; ; , 6 9 9 h h h l k l z z v b m M M M N N B ] m.S.u b m n M N ( q.Y.W.R.Y.Y.U.I.I.F.Z.Z.^.^.^.",
"^.^.^.Z.F.F.I.U.U.Y.R.%.. = % * , , , 6 9 9 9 h h j j l l z v v m m n M N N ( q.E.*.h b m n n N { N.Q.W.W.Y.Y.Y.U.F.F.F.C.^.^.^.",
"^.^.C.Z.Z.F.U.U.U.R.R.D.s . % - ; , , , 6 9 9 h h h l l l z z b m M m M N N ] M.z.0 l v m n n ( w.Q.Q.W.W.R.Y.Y.U.I.F.F.Z.C.^.^.",
"^.^.Z.Z.F.F.I.Y.Y.R.W.W.y.Y E U E W W W ! ~ ~ ~ ~ ~ [ [ [ | | | } } } } X.X.e.E. .h z b m m N } D.~.!.Q.W.R.R.Y.U.U.F.F.Z.Z.^.^.",
"^.^.Z.Z.F.I.U.Y.Y.R.W.W.W.P.K.T.E.P.E.E.E.E.E.E.E.T.T.T.T.T.P.P.T.E.W.P.E.T.!.f.8 l z b m m L t.~.!.!.Q.Q.R.R.Y.Y.I.I.F.Z.Z.^.^.",
"^.C.Z.F.F.I.U.Y.R.R.W.W.Q.~.!.E.E.E.E.E.E.E.E.E.!.E.E.E.!.E.W.E.E.!.E.E.E.~.E.T 9 l z b m m #.K.~.~.~.!.W.W.R.Y.Y.U.I.F.Z.Z.C.^.",
"^.C.Z.F.I.I.I.Y.R.W.W.W.!.~.c.p p p p a a H H H J J J J J K P P P P Q Q ;.T.u.6 j z z b m L a.~.~.~.~.!.Q.W.R.R.Y.U.I.F.F.Z.C.^.",
"^.Z.Z.F.I.I.Y.Y.R.R.W.Q.!.~.E.R X $ $ = ; , , , 9 h h j l l v v m M M ) t.P.H 9 l l l b m 1.E.~.~.~.~.!.W.Q.R.Y.Y.U.U.F.F.Z.C.^.",
"^.C.Z.F.I.I.U.R.R.W.W.Q.~.~.~.b.q $ = ; , , , h j j l l l b m M M N ( @.T.7., j j l z b ' l.~.~.~.~.~.!.!.W.W.R.R.U.I.I.F.Z.Z.^.",
"C.Z.Z.F.I.I.Y.Y.R.W.W.Q.~.~.~.~.8.o = * , , 9 9 h j j l l b m m M N ` a.J.u 9 j l l z M 3.!.~.~.~.~.!.!.!.Q.R.R.Y.Y.I.I.F.Z.C.C.",
"C.Z.Z.F.I.L.Y.Y.R.W.!.Q.Q.~.~.~.E.Y o * ; 6 9 h h j l l z b m m M N <.E.>.> h j j x l Q n.~.~.~.~.~.~.~.Q.W.R.R.Y.U.I.I.F.Z.C.C.",
"C.Z.F.F.I.U.Y.Y.R.W.!.!.~.~.~.~.~.c.4 % > , , 9 h j j b l b m M M ' x.S.i 9 h j l l m 5.~.~.~.~.~.~.~.~.Q.W.W.R.R.Y.L.I.F.F.Z.C.",
"C.Z.Z.F.I.I.R.R.Y.Q.Q.!.Q.!.~.~.~.~.>.t u Z Z A D A F F F L L L ` 2.E.*.> 9 h j j l ~ S.~.~.~.~.~.~.~.!.Q.W.W.R.Y.Y.I.I.I.Z.C.C.",
"C.C.Z.F.I.I.Y.Y.R.R.W.!.!.~.~.~.~.~.E.c.x.z.x.x.x.x.x.x.x.N.x.x.z.K.c.4 9 9 h j j D e.~.~.~.~.~.~.~.!.~.Q.W.W.R.Y.U.I.I.F.Z.C.C.",
"C.C.Z.F.I.U.Y.Y.R.W.W.Q.~.~.~.~.~.~.~.~.~.~.~.~.~.~.~.~.~.~.~.~.~.~./ & 9 9 j h x [ J.~.~.~.~.~.~.~.~.!.Q.W.W.R.Y.Y.I.I.Z.Z.Z.V.",
"C.Z.Z.F.I.I.U.R.R.R.W.Q.!.~.~.~.~.~.~.~.E.n.n.n.n.v.n.n.n.n.n.S.~.d.1 6 6 9 j j A t.~.~.~.~.~.~.~.~.~.~.Q.W.R.R.R.I.I.F.I.Z.Z.V.",
"V.Z.Z.F.F.U.U.Y.R.R.W.Q.!.~.!.~.~.~.~.~.T.g # 2 3 8 0 k x C F w.E.T % 6 9 9 9 j o.T.~.~.~.~.~.~.~.~.~.Q.Q.W.R.R.Y.U.I.I.Z.Z.C.V.",
"V.C.Z.F.F.I.U.Y.R.R.Q.Q.!.~.~.~.~.~.~.~.~.d.5 ; 6 h j z n M +.J.u.- 6 6 9 9 h F f.~.~.~.~.~.~.~.~.~.!.Q.W.W.R.R.Y.I.I.I.F.Z.Z.V.",
"C.C.Z.F.F.I.U.Y.R.R.W.Q.Q.!.~.~.~.~.~.~.~.~.:.- 6 h j z m L t.T.d * , , 7 9 l ;.E.~.~.~.~.~.~.~.~.~.!.Q.Q.W.R.Y.Y.I.I.F.Z.Z.V.V.",
"^.C.Z.Z.F.I.U.Y.Y.R.R.W.Q.!.~.~.~.~.~.~.~.~.T.T > h j z m #.K.7.+ , , 6 9 9 K z.~.~.~.~.~.~.~.~.~.~.Q.Q.Q.R.R.Y.Y.I.I.F.Z.Z.C.^.",
"^.C.C.Z.F.I.I.U.Y.Y.R.Q.Q.!.!.~.~.~.~.~.~.~.~.n.i h l z L g.K.r & > , 6 6 j 3.!.~.~.~.~.~.~.~.~.~.~.Q.Q.W.R.R.Y.U.I.F.F.Z.Z.C.^.",
"^.V.C.Z.F.F.I.U.Y.Y.R.W.Q.!.!.~.~.~.~.~.~.~.~.~.7.6 j c 3.E.>.o % ; , 6 6 P n.~.~.~.~.~.~.~.~.~.!.!.Q.W.R.R.Y.Y.I.I.I.Z.Z.C.V.^.",
"^.V.C.Z.Z.F.F.U.Y.Y.R.W.W.W.!.!.~.~.~.~.~.~.~.~.E. .9 Q v.G.q $ % ; , , k 6.~.~.~.~.~.~.~.~.~.~.Q.Q.Q.W.R.R.Y.U.I.I.I.Z.Z.C.V.^.",
"^.^.V.Z.Z.F.F.I.U.Y.Y.R.W.W.W.Q.~.~.~.~.~.~.~.~.~.G.K 4.~.%.  = * > , , W G.~.~.~.~.~.~.~.~.~.~.Q.Q.W.W.R.Y.Y.U.I.I.Z.Z.C.V.^.^.",
"^.^.C.C.Z.F.F.I.U.U.Y.R.R.W.Q.Q.!.~.~.~.~.~.~.~.~.~.c.G.n.< $ = * ; , x r.~.~.~.~.~.~.~.~.~.!.Q.Q.W.W.R.R.Y.Y.I.I.F.F.C.C.C.^.^.",
"^.^.V.C.C.Z.F.I.I.U.Y.Y.R.R.W.Q.!.!.~.~.~.~.~.~.~.~.~.~.R   $ = * ; , ^ K.~.~.~.~.~.~.~.~.!.!.Q.Q.W.R.R.Y.U.I.I.F.Z.Z.Z.V.V.^.^.",
"^.^.^.C.C.Z.Z.F.I.I.U.Y.Y.R.R.W.Q.Q.!.!.~.~.~.~.~.~.~.n.@ o $ = * * C y.~.~.~.~.~.~.~.~.~.Q.Q.Q.W.R.R.Y.Y.U.I.I.F.Z.Z.C.V.^.^.^.",
"^.^.^.V.V.Z.Z.F.F.I.U.U.Y.R.R.W.W.Q.!.Q.~.~.~.~.~.~.~.T.f   $ = * , *.P.~.~.~.~.~.~.~.!.!.Q.W.W.W.R.R.Y.Y.I.I.F.F.Z.C.C.V.^.^.^.",
"^.^.^.^.V.C.C.F.F.I.I.U.Y.Y.R.R.R.W.Q.Q.!.~.~.~.~.~.~.~.s.@ $ = = Z f.~.~.~.~.~.~.~.!.!.Q.Q.W.W.R.R.Y.U.I.I.F.F.Z.Z.C.V.^.^.^.^.",
"^.^.^.^.V.V.C.Z.Z.F.I.I.I.Y.Y.Y.R.W.W.Q.Q.!.!.!.~.~.~.Q.~.$.. = ; =.E.~.~.~.~.~.~.!.Q.Q.Q.W.R.R.Y.Y.U.U.I.I.F.Z.Z.C.C.V.^.^.^.^.",
"^.^.^.^.^.C.Z.Z.Z.F.F.I.I.I.Y.Y.R.R.R.W.Q.Q.Q.Q.Q.Q.!.~.~.G.r $ S h.~.!.~.!.!.Q.Q.W.W.W.W.R.R.R.Y.U.U.U.I.F.Z.Z.C.V.V.^.^.^.^.^.",
"^.^.^.^.^.V.V.V.C.Z.Z.F.I.I.I.Y.Y.Y.R.R.R.W.W.Q.Q.Q.!.!.!.!.7.: ,.!.~.!.Q.Q.Q.Q.Q.W.W.W.R.R.Y.Y.Y.U.I.I.F.F.Z.Z.C.V.V.^.^.^.^.^.",
"^.^.^.^.^.^.V.V.C.Z.Z.F.F.I.I.I.Y.Y.Y.R.R.R.W.W.W.W.Q.Q.Q.Q.P.=.v.Q.Q.Q.Q.Q.W.W.W.W.R.R.R.Y.Y.U.U.I.I.Z.Z.Z.Z.C.V.V.^.^.^.^.^.^.",
"^.^.^.^.^.^.^.V.V.C.Z.Z.F.F.I.I.I.I.Y.R.Y.R.R.R.W.W.W.W.W.W.Q.P.W.Q.W.W.W.W.W.R.R.Y.R.Y.Y.U.Y.I.I.I.F.Z.Z.C.C.C.V.^.^.^.^.^.^.^.",
"^.^.^.^.^.^.^.^.V.V.C.Z.Z.F.F.I.I.U.I.Y.Y.Y.Y.R.R.R.R.R.W.R.W.W.W.R.W.R.W.R.R.R.R.R.Y.Y.Y.I.I.I.I.Z.Z.Z.Z.V.V.V.^.^.^.^.^.^.^.^.",
"^.^.^.^.^.^.^.^.^.V.V.C.C.Z.Z.F.F.F.I.I.I.U.Y.Y.Y.Y.R.R.R.R.R.R.R.R.R.R.R.Y.Y.Y.Y.I.Y.I.I.I.I.F.F.Z.Z.Z.Z.V.V.^.^.^.^.^.^.^.^.^.",
"^.^.^.^.^.^.^.^.^.^.V.C.C.C.C.Z.F.F.F.I.I.I.U.U.U.U.Y.Y.Y.Y.Y.Y.Y.Y.Y.Y.Y.Y.U.Y.I.I.I.I.I.F.F.Z.Z.Z.Z.C.V.V.^.^.^.^.^.^.^.^.^.^.",
"^.^.^.^.^.^.^.^.^.^.^.V.V.C.C.Z.Z.Z.F.F.I.I.I.I.I.U.U.U.U.U.Y.Y.Y.U.Y.U.U.U.U.I.I.I.I.I.F.Z.F.Z.Z.V.V.V.B.^.^.^.^.^.^.^.^.^.^.^.",
"^.^.^.^.^.^.^.^.^.^.^.^.V.V.C.C.C.Z.Z.Z.F.F.F.I.I.I.I.I.I.I.U.U.I.U.I.I.I.I.I.F.F.F.F.F.Z.Z.Z.C.C.C.V.V.^.^.^.^.^.^.^.^.^.^.^.^.",
"^.^.^.^.^.^.^.^.^.^.^.^.^.V.V.V.C.C.C.Z.Z.Z.Z.F.F.F.F.I.I.I.I.I.I.I.I.I.I.F.F.F.F.Z.Z.Z.C.Z.C.C.V.V.V.^.^.^.^.^.^.^.^.^.^.^.^.^.",
"^.^.^.^.^.^.^.^.^.^.^.^.^.^.V.V.V.V.C.C.C.C.Z.Z.Z.Z.Z.I.Z.Z.F.Z.Z.I.Z.F.F.Z.Z.Z.Z.Z.Z.C.C.C.V.V.B.V.^.^.^.^.^.^.^.^.^.^.^.^.^.^.",
"^.^.^.^.^.^.^.^.^.^.^.^.^.^.^.^.V.V.V.V.C.C.C.C.C.Z.Z.Z.Z.Z.Z.Z.Z.Z.Z.Z.Z.Z.Z.Z.Z.C.V.C.V.V.V.B.^.^.^.^.^.^.^.^.^.^.^.^.^.^.^.^.",
"^.^.^.^.^.^.^.^.^.^.^.^.^.^.^.^.^.^.V.V.V.V.V.C.V.C.C.C.Z.Z.V.Z.Z.C.Z.C.C.C.C.C.V.C.V.V.V.B.^.^.^.^.^.^.^.^.^.^.^.^.^.^.^.^.^.^.",
"^.^.^.^.^.^.^.^.^.^.^.^.^.^.^.^.^.^.^.^.B.B.V.V.V.C.V.C.C.V.V.C.V.V.C.V.V.V.V.V.V.V.B.B.^.^.^.^.^.^.^.^.^.^.^.^.^.^.^.^.^.^.^.^.",
"^.^.^.^.^.^.^.^.^.^.^.^.^.^.^.^.^.^.^.^.^.^.^.B.B.V.V.V.V.V.V.V.V.V.V.V.V.V.V.B.B.^.^.^.^.^.^.^.^.^.^.^.^.^.^.^.^.^.^.^.^.^.^.^.",
"^.^.^.^.^.^.^.^.^.^.^.^.^.^.^.^.^.^.^.^.^.^.^.^.^.^.^.B.B.B.B.B.B.B.B.B.B.^.^.^.^.^.^.^.^.^.^.^.^.^.^.^.^.^.^.^.^.^.^.^.^.^.^.^."
};
