/* XPM */
static char *f8dabf37305d43f094352bb26133e65a[] = {
/* columns rows colors chars-per-pixel */
"32 32 123 2 ",
"   c #29305F",
".  c #2C3463",
"X  c #2D3769",
"o  c #2E396C",
"O  c #323C6D",
"+  c #2F3C71",
"@  c #303E73",
"#  c #3D436B",
"$  c #32427A",
"%  c #37497F",
"&  c #4C4F6F",
"*  c #434F7F",
"=  c #475077",
"-  c #4C5275",
";  c #50577B",
":  c #5B607E",
">  c #334682",
",  c #344987",
"<  c #3D4F86",
"1  c #354A8B",
"2  c #384D8F",
"3  c #3E518C",
"4  c #364E92",
"5  c #384F95",
"6  c #365196",
"7  c #395194",
"8  c #37549B",
"9  c #39559B",
"0  c #485586",
"q  c #4F5A86",
"w  c #44568B",
"e  c #535B82",
"r  c #585F86",
"t  c #545F89",
"y  c #485D94",
"u  c #54628E",
"i  c #5A638C",
"p  c #5E698E",
"a  c #576694",
"s  c #5C6792",
"d  c #5C6997",
"f  c #5C6C9C",
"g  c #676B88",
"h  c #74768D",
"j  c #616D92",
"k  c #6A7599",
"l  c #767A95",
"z  c #7A7D9B",
"x  c #4962A2",
"c  c #5269A4",
"v  c #596DA3",
"b  c #5F70A3",
"n  c #6375A6",
"m  c #6276AC",
"M  c #717EA7",
"N  c #657BB2",
"B  c #7782A4",
"V  c #7F83A0",
"C  c #7E89AC",
"Z  c #798DBB",
"A  c #85889C",
"S  c #8186A2",
"D  c #838BA6",
"F  c #8A8FA6",
"G  c #858EAA",
"H  c #8B92AE",
"J  c #9296A9",
"K  c #9D9FAE",
"L  c #8591B6",
"P  c #8994B3",
"I  c #8391B8",
"U  c #8996B9",
"Y  c #9198B5",
"T  c #989AB1",
"R  c #929CBB",
"E  c #9CA1B6",
"W  c #A6AABD",
"Q  c #ABAEBE",
"!  c #B1B1BC",
"~  c #8898C1",
"^  c #929EC0",
"/  c #98A4C5",
"(  c #9DA8C3",
")  c #9BA9C8",
"_  c #A2ACC7",
"`  c #AAADC7",
"'  c #A7B0CB",
"]  c #AEB7CF",
"[  c #B5BBCB",
"{  c #B9BDCA",
"}  c #AFB7D2",
"|  c #B6BDD0",
" . c #BBC0CC",
".. c #BFC7E0",
"X. c #C2C4CD",
"o. c #C7C8CE",
"O. c #C1C6D4",
"+. c #C3C8D7",
"@. c #C8CCD6",
"#. c #C0C2D9",
"$. c #D1D3DE",
"%. c #D6D9E4",
"&. c #DCDEE4",
"*. c #D2D6FE",
"=. c #D6DAFF",
"-. c #DADEFF",
";. c #DEE0E6",
":. c #DDE1FF",
">. c #E3E3E7",
",. c #E3E5EC",
"<. c #E7E9ED",
"1. c #EAEBED",
"2. c #E6E7F1",
"3. c #ECEDF2",
"4. c #E3E5FF",
"5. c #E6E8FE",
"6. c #EBECFF",
"7. c #EFF0FF",
"8. c #F2F3F5",
"9. c #F4F4FF",
"0. c #F7F8F9",
"q. c #FCFCFF",
"w. c None",
/* pixels */
"w.w.w.w.w.w.w.w.w.w.w.w.-.:.:.4.:.:.:.:.w.w.w.w.w.w.w.w.w.w.w.w.",
"w.w.w.w.w.w.w.w.w.-.:.4.4.4.4.4.4.4.4.4.4.-.-.w.w.w.w.w.w.w.w.w.",
"w.w.w.w.w.w.w.w.:.4.4.6.5.6.6.6.6.6.6.4.6.4.4.-.w.w.w.w.w.w.w.w.",
"w.w.w.w.w.w.-.:.4.4.6.6.6.7.7.9.7.7.7.7.6.6.4.4.:.:.w.w.w.w.w.w.",
"w.w.w.w.w.:.:.5.6.6.7.9.9.0.0.9.0.0.9.9.9.7.6.6.4.:.-.w.w.w.w.w.",
"w.w.w.w.:.:.4.6.7.7.9.0.0.0.q.q.q.q.0.q.0.9.9.6.6.4.4.-.w.w.w.w.",
"w.w.w.-.:.5.6.7.9.9.0.q.q.q.q.q.q.q.q.q.q.0.0.9.7.6.4.:.-.w.w.w.",
"w.w.w.:.` l z S S D G G H H P P P P U U ' $.U L I } 5.4.:.w.w.w.",
"w.w.-.4.#.&   . X + @ > > , , 1 2 8 8 9 ) G 1 6 x ..6.5.4.-.w.w.",
"w.-.:.4.6.T   . + @ @ > > , 1 2 6 8 8 N [ y 6 9 U 7.7.6.4.-.-.w.",
"w.-.:.5.6.2.l e i i a d f f v b m m m } B , 7 c %.0.9.6.4.:.-.w.",
"w.-.4.5.7.9.8.;.%.&.&.&.&.&.&.&.&.&.<. .< 2 7 / 0.0.9.7.6.4.-.w.",
"=.:.4.6.7.9.q.! - ; q t u a d f v n O.k , 2 v ,.q.0.9.7.5.4.-.=.",
"-.-.4.6.7.0.q.1.: . @ $ > 1 1 5 8 Z W % 1 2 ' q.q.q.0.7.6.4.:.=.",
"=.:.4.6.9.0.q.q.X.O O @ > 1 1 5 x  .p > , n 3.q.q.q.0.7.6.4.:.=.",
"=.:.4.6.7.0.q.q.q.Q J Y Y R R ^ ] E $ > w | q.q.q.q.9.7.6.4.:.=.",
"-.-.4.6.7.9.q.q.q.q.1.&.&.&.;.<.>.e $ % M 8.q.q.q.q.0.7.6.4.-.=.",
"=.-.4.6.7.9.q.q.q.q.o.- 0 0 y ( J + $ 3 @.q.q.q.q.0.0.7.6.4.-.=.",
"=.-.4.5.7.9.0.q.q.q.q.F @ , c { = @ $ C 0.q.q.q.q.0.9.6.4.4.-.=.",
"=.=.4.4.6.9.0.q.q.q.q.3.j , ( A X @ 0 $.q.q.q.q.q.9.9.6.4.-.-.=.",
"w.=.:.4.6.6.9.0.q.q.q.q.@.B { & X $ H q.q.q.q.q.0.9.6.6.4.-.=.w.",
"w.=.-.:.6.6.7.9.q.q.q.q.q.>.h   X q &.q.q.q.q.0.0.7.6.4.4.-.=.w.",
"w.*.=.:.4.4.6.9.9.q.q.q.q.1.& . O E q.q.q.q.0.0.7.6.5.4.-.=.=.w.",
"w.w.*.-.4.4.6.6.9.9.0.q.q.q.K . r ,.q.q.q.0.0.7.6.6.4.:.-.=.w.w.",
"w.w.w.=.-.:.4.6.6.7.9.0.0.q.3.g W q.0.0.9.9.7.6.6.4.:.-.=.w.w.w.",
"w.w.w.*.=.-.:.4.6.6.6.9.9.9.0.%.2.0.9.9.9.6.6.6.4.4.-.=.*.w.w.w.",
"w.w.w.w.*.=.-.:.4.4.6.6.6.6.7.7.7.7.6.6.6.6.4.4.:.-.*.*.w.w.w.w.",
"w.w.w.w.w.*.=.-.-.4.4.4.6.6.6.6.6.6.6.6.4.4.:.:.-.=.*.w.w.w.w.w.",
"w.w.w.w.w.w.*.*.=.-.-.:.4.4.4.4.4.4.4.4.:.-.-.=.*.*.w.w.w.w.w.w.",
"w.w.w.w.w.w.w.w.*.*.=.-.-.-.-.-.:.:.-.-.-.=.*.*.w.w.w.w.w.w.w.w.",
"w.w.w.w.w.w.w.w.w.*.*.*.*.=.*.=.=.=.*.*.*.*.*.w.w.w.w.w.w.w.w.w.",
"w.w.w.w.w.w.w.w.w.w.w.w.*.*.*.*.*.*.*.*.w.w.w.w.w.w.w.w.w.w.w.w."
};
