/* XPM */
static char *_f2f02728e394528ba8a45fa20028659[] = {
/* columns rows colors chars-per-pixel */
"16 16 142 2 ",
"   c #343C69",
".  c #333F72",
"X  c #3D4877",
"o  c #36457D",
"O  c #3F4978",
"+  c #374B85",
"@  c #3B4B82",
"#  c #3B4F8C",
"$  c #394F8E",
"%  c #3A5396",
"&  c #3F5797",
"*  c #455587",
"=  c #4D5885",
"-  c #4E5E90",
";  c #5E6383",
":  c #4F6196",
">  c #516192",
",  c #52659C",
"<  c #636888",
"1  c #646A89",
"2  c #667098",
"3  c #526AA7",
"4  c #6B7AA7",
"5  c #6C79A5",
"6  c #6073A9",
"7  c #6E7EAE",
"8  c #7D84A1",
"9  c #7882A6",
"0  c #7A85A8",
"q  c #7C89AF",
"w  c #7385B2",
"e  c #8389A6",
"r  c #808BAB",
"t  c #8A90AA",
"y  c #8891AF",
"u  c #8794B6",
"i  c #8D95B2",
"p  c #8E98B6",
"a  c #8F9ABB",
"s  c #9FA2BC",
"d  c #A3A6BB",
"f  c #A8ACBE",
"g  c #919EC0",
"h  c #9EA8C5",
"j  c #A0ACCF",
"k  c #A9B2C9",
"l  c #ADB0C9",
"z  c #B7BAC7",
"x  c #B4B8CD",
"c  c #B3BCD4",
"v  c #B9BDD0",
"b  c #B8BBD7",
"n  c #BBC1D2",
"m  c #BCC3D5",
"M  c #BDC4D7",
"N  c #BAC1D9",
"B  c #BDC5D9",
"V  c #C5C9D6",
"C  c #C7C8D7",
"Z  c #C1C7D8",
"A  c #CED1DA",
"S  c #CED2DE",
"D  c #C1C8E3",
"F  c #D2D6E5",
"G  c #D8D9E5",
"H  c #D2D6FE",
"J  c #D3D7FE",
"K  c #D2D6FF",
"L  c #D4D8FE",
"P  c #D4D8FF",
"I  c #D5D9FF",
"U  c #D6DAFE",
"Y  c #D6DAFF",
"T  c #D8DBFF",
"R  c #DADDFC",
"E  c #D8DCFF",
"W  c #D9DCFF",
"Q  c #D9DDFF",
"!  c #DADDFF",
"~  c #DBDFFE",
"^  c #DADEFF",
"/  c #DBDEFF",
"(  c #DBDFFF",
")  c #DDE1FF",
"_  c #DEE1FF",
"`  c #DEE2FF",
"'  c #DFE2FF",
"]  c #E2E2E7",
"[  c #E6E9F4",
"{  c #E7E8F6",
"}  c #E0E3FF",
"|  c #E1E4FD",
" . c #E0E4FF",
".. c #E1E4FF",
"X. c #E2E5FE",
"o. c #E2E5FF",
"O. c #E3E5FF",
"+. c #E3E6FF",
"@. c #E4E6FF",
"#. c #E5E8FE",
"$. c #E7E9FE",
"%. c #E6E8FF",
"&. c #E7E9FF",
"*. c #E8EAFF",
"=. c #EAEBFF",
"-. c #EAECFF",
";. c #EBECFF",
":. c #EBEDFF",
">. c #ECEDFF",
",. c #EDEEFF",
"<. c #EDEFFF",
"1. c #EEEFFE",
"2. c #EEEFFF",
"3. c #EFF0FF",
"4. c #F1F1F4",
"5. c #F2F4F7",
"6. c #F0F0FF",
"7. c #F0F1FF",
"8. c #F1F1FF",
"9. c #F2F3FF",
"0. c #F3F3FF",
"q. c #F3F4FF",
"w. c #F4F4FF",
"e. c #F4F5FF",
"r. c #F5F5FF",
"t. c #F5F6FF",
"y. c #F6F7FF",
"u. c #F7F8FF",
"i. c #F8F9FA",
"p. c #FBFBFC",
"a. c GhostWhite",
"s. c #F9F9FF",
"d. c #FAFAFF",
"f. c #FBFBFF",
"g. c gray99",
"h. c #FCFCFE",
"j. c #FDFDFE",
"k. c #FCFCFF",
"l. c #FDFDFF",
"z. c #FEFDFF",
"x. c gray100",
"c. c None",
/* pixels */
"c.c.c.c.c.) ........) c.c.c.c.c.",
"c.c.c.) ..*.<.3.3.:.*...) c.c.c.",
"c.c...*.7.e.d.h.k.d.e.7.@.) c.c.",
"c.R b l x v n m M B F N D | ) c.",
"c...s   . o + $ % 3 w - j <.) c.",
"R @.{ d t i p a g h : 6 { 7...R ",
"R &.e.] 1 = > , w q # c h.e.&.R ",
") &.q.h.f 2 5 7 u * 4 5.h.7.*.( ",
"R &.7.f.h.z y k 8 @ Z h.h.7.&.R ",
"W @.7.d.h.A - 9 O 9 p.h.d.7...R ",
"I ) :.e.h.h.V 1 O S h.h.e.*.) I ",
"c.R ..<.d.h.4.; e d.h.e.<...R c.",
"c.I R ..<.7.a.C G e.7.<...R I c.",
"c.c.I R | *.*.6.<.<.*.) R I c.c.",
"c.c.c.K I R ) | | ) R I K c.c.c.",
"c.c.c.c.c.K J J J J K c.c.c.c.c."
};
